<?xml version="1.0" encoding="UTF-8"?>
<svg version="1.1" xmlns="http://www.w3.org/2000/svg" width="48" height="48">
<path d="M0 0 C2.95449252 1.16360686 4.4457758 2.33066328 6.30786133 4.90893555 C6.15989005 9.83095534 3.37470933 12.3966106 0.03051758 15.6472168 C-0.7593026 16.43566231 -0.7593026 16.43566231 -1.56507874 17.24003601 C-2.67587182 18.34480419 -3.79150478 19.44472475 -4.91162109 20.54003906 C-6.63077876 22.22255134 -8.33325736 23.9206571 -10.03393555 25.62182617 C-11.11567633 26.69374068 -12.19832771 27.76473721 -13.28198242 28.8347168 C-13.7934935 29.34400223 -14.30500458 29.85328766 -14.83201599 30.37800598 C-18.45996868 33.90893555 -18.45996868 33.90893555 -20.69213867 33.90893555 C-20.69213867 32.91893555 -20.69213867 31.92893555 -20.69213867 30.90893555 C-22.01213867 30.57893555 -23.33213867 30.24893555 -24.69213867 29.90893555 C-24.69213867 28.91893555 -24.69213867 27.92893555 -24.69213867 26.90893555 C-25.68213867 26.90893555 -26.67213867 26.90893555 -27.69213867 26.90893555 C-26.10522374 23.06195484 -23.51374927 20.3754703 -20.64135742 17.4519043 C-20.14553665 16.94468338 -19.64971588 16.43746246 -19.13887024 15.91487122 C-18.09182501 14.84899309 -17.04188856 13.78594833 -15.98925781 12.72558594 C-14.3812314 11.0980476 -12.7957631 9.45044178 -11.2097168 7.80151367 C-10.1882556 6.76700032 -9.16551131 5.73375198 -8.14135742 4.7019043 C-7.67034103 4.20619431 -7.19932465 3.71048431 -6.71403503 3.19975281 C-4.40979399 0.92599933 -3.3100698 -0.11196663 0 0 Z M-1.69213867 5.90893555 C-1.69213867 6.56893555 -1.69213867 7.22893555 -1.69213867 7.90893555 C-1.03213867 7.90893555 -0.37213867 7.90893555 0.30786133 7.90893555 C0.30786133 7.24893555 0.30786133 6.58893555 0.30786133 5.90893555 C-0.35213867 5.90893555 -1.01213867 5.90893555 -1.69213867 5.90893555 Z M-9.73120117 13.68237305 C-10.3112793 14.25987305 -10.89135742 14.83737305 -11.48901367 15.43237305 C-12.09229492 16.04338867 -12.69557617 16.6544043 -13.31713867 17.28393555 C-13.9281543 17.8872168 -14.53916992 18.49049805 -15.16870117 19.11206055 C-16.03495117 19.98217773 -16.03495117 19.98217773 -16.91870117 20.86987305 C-17.45060059 21.40402832 -17.9825 21.93818359 -18.53051758 22.48852539 C-19.90315997 23.86114886 -19.90315997 23.86114886 -19.69213867 25.90893555 C-15.66131867 24.29660755 -12.9326973 21.44658959 -9.94213867 18.40893555 C-9.43553711 17.91006836 -8.92893555 17.41120117 -8.40698242 16.8972168 C-5.56408268 14.37831917 -5.56408268 14.37831917 -4.69213867 10.90893555 C-7.37701032 10.90893555 -7.85337082 11.8124732 -9.73120117 13.68237305 Z " fill="#EC3136" transform="translate(37.692138671875,4.091064453125)"/>
<path d="M0 0 C2.86697492 1.28519565 4.97607712 2.57129254 7 5 C7 5.66 7 6.32 7 7 C4.29120665 8.35439668 1.99066732 8.06501451 -1 8 C-1.125 2.25 -1.125 2.25 0 0 Z " fill="#ED3136" transform="translate(7,34)"/>
</svg>
