<svg xmlns="http://www.w3.org/2000/svg" width="22.5" height="18" viewBox="0 0 22.5 18">
  <g id="folder-up_solid" transform="translate(0 -4.8)">
    <path id="Path_1048" data-name="Path 1048" d="M.537,7.168C0,8.166,0,9.487,0,12.128V13.8c0,4.243,0,6.364,1.318,7.682S4.757,22.8,9,22.8h6.188c2.626,0,3.94,0,4.934-.531a4.5,4.5,0,0,0,1.847-1.847c.531-.994.531-2.307.531-4.934v-1.45a11.281,11.281,0,0,0-.127-2.423A4.5,4.5,0,0,0,19.06,8.3a11.284,11.284,0,0,0-2.423-.127H15.528a3.79,3.79,0,0,1-3.153-1.687A3.79,3.79,0,0,0,9.222,4.8H7.328c-2.641,0-3.962,0-4.96.537A4.5,4.5,0,0,0,.537,7.168Zm11.309,3.785a.844.844,0,0,0-1.193,0L7.278,14.328a.844.844,0,0,0,1.193,1.193l1.935-1.935v4.938a.844.844,0,0,0,1.688,0V13.587l1.935,1.935a.844.844,0,1,0,1.193-1.193Z" fill="#ed3237" fill-rule="evenodd"/>
  </g>
</svg>
