<svg xmlns="http://www.w3.org/2000/svg" width="18.286" height="16" viewBox="0 0 18.286 16">
  <path id="Path_969" data-name="Path 969" d="M17.17,3.429h-.036l.036,7.929v.071a1.159,1.159,0,0,1-1.143,1.143H2.313a1.09,1.09,0,0,1-.813-.339,1.113,1.113,0,0,1-.33-.8v-.071l.036-7.929H1.17A1.1,1.1,0,0,1,.358,3.1a1.1,1.1,0,0,1-.33-.812,1.1,1.1,0,0,1,.33-.813,1.094,1.094,0,0,1,.8-.33,1.124,1.124,0,0,1,.813.33,1.09,1.09,0,0,1,.339.813,1.076,1.076,0,0,1-.482.929L5.742,8.75,8.706,2.179a1.061,1.061,0,0,1-.491-.411,1.116,1.116,0,0,1-.187-.625A1.1,1.1,0,0,1,8.358.33a1.094,1.094,0,0,1,.8-.33,1.124,1.124,0,0,1,.813.33,1.09,1.09,0,0,1,.339.813,1.116,1.116,0,0,1-.187.625,1.061,1.061,0,0,1-.491.411L12.6,8.75,16.51,3.214a1.076,1.076,0,0,1-.482-.929,1.1,1.1,0,0,1,.33-.813,1.094,1.094,0,0,1,.8-.33,1.124,1.124,0,0,1,.812.33,1.09,1.09,0,0,1,.339.813,1.09,1.09,0,0,1-.339.813,1.113,1.113,0,0,1-.8.33Zm-16,10.286h16a1.113,1.113,0,0,1,.8.33,1.079,1.079,0,0,1,.339.8A1.159,1.159,0,0,1,17.17,16h-16a1.1,1.1,0,0,1-.8-.339,1.108,1.108,0,0,1-.339-.812,1.094,1.094,0,0,1,.33-.8,1.1,1.1,0,0,1,.812-.33Z" transform="translate(-0.027)"/>
</svg>
