<svg xmlns="http://www.w3.org/2000/svg" width="17" height="17" viewBox="0 0 17 17">
  <g id="monitor-plus-2_solid" opacity="0.25">
    <path id="Path_756" data-name="Path 756" d="M2.624,12.426a10.6,10.6,0,0,0,3.751.324H7.863v2.975H4.037a.637.637,0,1,0,0,1.275h8.925a.637.637,0,1,0,0-1.275H9.137V12.75h1.488a10.6,10.6,0,0,0,3.751-.324,4.25,4.25,0,0,0,2.3-2.3A10.6,10.6,0,0,0,17,6.375a10.6,10.6,0,0,0-.324-3.751,4.25,4.25,0,0,0-2.3-2.3A10.6,10.6,0,0,0,10.625,0H6.375A10.6,10.6,0,0,0,2.624.324a4.25,4.25,0,0,0-2.3,2.3A10.6,10.6,0,0,0,0,6.375a10.6,10.6,0,0,0,.324,3.751A4.25,4.25,0,0,0,2.624,12.426Z"/>
  </g>
</svg>
