<svg xmlns="http://www.w3.org/2000/svg" width="17" height="15.937" viewBox="0 0 17 15.937">
  <path id="Union_95" data-name="Union 95" d="M1,15.937a1,1,0,0,1-1-1V5.249a1,1,0,0,1,1-1H16a1,1,0,0,1,1,1v9.69a1,1,0,0,1-1,1ZM6.087,7.29a.531.531,0,0,0-.243.445v4.633a.531.531,0,0,0,.749.483l5.19-2.316a.531.531,0,0,0,0-.972L6.593,7.252a.531.531,0,0,0-.506.038Zm-4.96-4.1V2.656a.531.531,0,0,1,.531-.531H15.47A.531.531,0,0,1,16,2.656v.531ZM2.2,1.063V.531A.531.531,0,0,1,2.731,0H14.418a.531.531,0,0,1,.531.531v.531Z" fill="#ed3237" />
</svg>
