<svg xmlns="http://www.w3.org/2000/svg" width="17" height="15.755" viewBox="0 0 17 15.755">
  <path id="Union_176" data-name="Union 176" d="M0,8.137a.681.681,0,0,1,.682-.686H16.99c.184-.008-1.852,8.3-8.416,8.3C2.155,15.755-.018,9.405,0,8.137Zm12.77-1.1v0a.177.177,0,0,1-.171-.171V5.133a.171.171,0,0,1,.171-.171H14.7a.171.171,0,0,1,.171.171V6.866a.171.171,0,0,1-.171.171Zm-2.694,0v0a.171.171,0,0,1-.171-.171V5.133a.171.171,0,0,1,.171-.171h1.932a.171.171,0,0,1,.172.171V6.866a.171.171,0,0,1-.172.171Zm-2.674,0v0a.165.165,0,0,1-.171-.171V5.133A.171.171,0,0,1,7.4,4.962H9.334a.171.171,0,0,1,.172.171V6.866a.171.171,0,0,1-.172.171Zm-2.714,0v0a.178.178,0,0,1-.171-.171V5.133a.171.171,0,0,1,.171-.171H6.621a.17.17,0,0,1,.171.171V6.866a.171.171,0,0,1-.171.171Zm-2.663,0v0a.177.177,0,0,1-.171-.171V5.133a.171.171,0,0,1,.171-.171H3.957a.171.171,0,0,1,.172.171V6.866a.171.171,0,0,1-.172.171Zm8.051-2.475v0a.178.178,0,0,1-.171-.171V2.658a.171.171,0,0,1,.171-.171h1.932a.178.178,0,0,1,.172.171V4.391a.179.179,0,0,1-.172.171Zm-2.674,0v0a.171.171,0,0,1-.171-.171V2.658A.171.171,0,0,1,7.4,2.487H9.334a.171.171,0,0,1,.172.171V4.391a.179.179,0,0,1-.172.171Zm-2.714,0v0a.185.185,0,0,1-.171-.171V2.658a.171.171,0,0,1,.171-.171H6.621a.171.171,0,0,1,.171.171V4.391a.177.177,0,0,1-.171.171Zm5.388-2.485v0A.178.178,0,0,1,9.907,1.9V.171A.171.171,0,0,1,10.078,0h1.932a.179.179,0,0,1,.172.171V1.907a.171.171,0,0,1-.172.171Z" transform="translate(-0.002)" fill="#080000"/>
</svg>