<svg xmlns="http://www.w3.org/2000/svg" width="14.985" height="17" viewBox="0 0 14.985 17">
  <path id="product" d="M53.394,28.308V29.7a.1.1,0,0,0,.053.093l1.086.627a.107.107,0,0,0,.16-.093V28.47l4.481-2.587,1.413.816a.348.348,0,0,1,.178.309V31.77a.348.348,0,0,1-.178.309L56.462,34.46a.348.348,0,0,1-.356,0l-4.125-2.381a.348.348,0,0,1-.178-.309V27.46l1.273.735a.933.933,0,0,0,.318.114Zm.323-10.75a.348.348,0,0,0-.356,0l-4.125,2.381a.348.348,0,0,0-.178.309v4.763a.348.348,0,0,0,.178.309L53.361,27.7a.348.348,0,0,0,.356,0l4.125-2.381a.348.348,0,0,0,.178-.309V20.248a.348.348,0,0,0-.178-.309l-1.413-.816-4.481,2.587v1.852a.107.107,0,0,1-.16.093L50.7,23.029a.1.1,0,0,1-.053-.093V20.961l4.481-2.587Zm-5.23,6.04-1.117.645v1.976a.1.1,0,0,0,.053.093l1.086.627a.107.107,0,0,0,.16-.093v-1.28a.93.93,0,0,0,.28.248l2.282,1.317v3.394l-.793.458a.348.348,0,0,1-.356,0L45.958,28.6a.348.348,0,0,1-.178-.309V23.53a.348.348,0,0,1,.178-.309l2.529-1.46Z" transform="translate(-45.78 -17.509)" fill="#000000" fill-rule="evenodd"/>
</svg>