<svg xmlns="http://www.w3.org/2000/svg" width="16.148" height="17" viewBox="0 0 16.148 17">
  <g id="Group_357" data-name="Group 357" transform="translate(-4107 -1032)">
    <path id="Union_102" data-name="Union 102" d="M-3327.3-1068a.85.85,0,0,1-.85-.85v-4.25a.85.85,0,0,1-.786-.527.85.85,0,0,1,.189-.927l4-3.946v-4.791a1.707,1.707,0,0,1,1.708-1.709h8.483a1.706,1.706,0,0,1,1.708,1.708v14.443a.849.849,0,0,1-.85.85Zm.85-6.433v4.733h5.033v-4.687l-2.494-2.552Zm8.5,2.183h1.7v-1.7h-1.7Zm0-3.4h1.7v-1.7h-1.7Zm0-3.4h1.7v-1.7h-1.7Zm-3.4,0h1.7v-1.7h-1.7Zm-3.4,6.8v-1.7h1.7v1.7Z" transform="translate(7436 2117)"  fill="#ED3237"/>
  </g>
</svg>
