<svg id="SvgjsSvg1001" width="288px" height="288px" xmlns="http://www.w3.org/2000/svg" version="1.1" xmlns:xlink="http://www.w3.org/1999/xlink" xmlns:svgjs="http://svgjs.com/svgjs" transform="rotate(0) scale(1, 1)"><defs id="SvgjsDefs1002"/><g id="SvgjsG1008"><svg xmlns="http://www.w3.org/2000/svg" viewBox="0 0 15.626 17" width="288" height="288"><path d="M6.629,19.3V14.2a6.8,6.8,0,1,1,13.6,0v5.1h.85V21H5.779V19.3Zm1.7-5.1h1.7a3.4,3.4,0,0,1,3.4-3.4V9.1a5.1,5.1,0,0,0-5.1,5.1ZM12.579,4h1.7V6.55h-1.7Zm7.461,2.387,1.2,1.2-1.8,1.8-1.2-1.2,1.8-1.8ZM5.616,7.589l1.2-1.2,1.8,1.8-1.2,1.2Z" transform="translate(-5.616 -4)" fill="#53bf8b" class="svgShape color000000-0 selectable"/></svg></g></svg>