<svg id="SvgjsSvg1012" width="288" height="288" xmlns="http://www.w3.org/2000/svg" version="1.1" xmlns:xlink="http://www.w3.org/1999/xlink" xmlns:svgjs="http://svgjs.com/svgjs"><defs id="SvgjsDefs1013"></defs><g id="SvgjsG1014"><svg xmlns="http://www.w3.org/2000/svg" viewBox="0 0 20 20" width="288" height="288"><g transform="translate(-4.8 -4.8)"><path fill-rule="evenodd" d="M14.8,24.8a10,10,0,1,0-10-10A10,10,0,0,0,14.8,24.8Zm.884-12.866a1.25,1.25,0,1,0-1.768-1.768l-3.75,3.75a1.25,1.25,0,0,0,0,1.767l3.75,3.75a1.25,1.25,0,1,0,1.768-1.768L14.067,16.05H18.55a1.25,1.25,0,0,0,0-2.5H14.067Z" fill="#ffffff" class="svgShape color000000-1 selectable"></path></g></svg></g></svg>