<svg xmlns="http://www.w3.org/2000/svg" width="16.628" height="19" viewBox="0 0 16.628 19">
  <path id="Path_764" data-name="Path 764" d="M16.116,8.774,11.46,11.593a2.422,2.422,0,0,1-1.122.306,1.873,1.873,0,0,1-1.048-.213L7.936,10.87a2.428,2.428,0,0,1-.844.76,2.305,2.305,0,0,1-1.122.278V13.1a3.434,3.434,0,0,1-1.039,2.523,3.434,3.434,0,0,1-2.523,1.039v1.187a1.156,1.156,0,0,1-.343.835,1.121,1.121,0,0,1-.835.352,1.151,1.151,0,0,1-.844-.352,1.141,1.141,0,0,1-.352-.835V14.283a1.141,1.141,0,0,1,.352-.835A1.151,1.151,0,0,1,1.23,13.1a1.121,1.121,0,0,1,.835.352,1.156,1.156,0,0,1,.343.835V15.47a2.287,2.287,0,0,0,1.679-.7,2.287,2.287,0,0,0,.7-1.679V11.575a2.426,2.426,0,0,1-.863-.853A2.254,2.254,0,0,1,3.6,9.534,2.358,2.358,0,0,1,3.874,8.44L.628,6.492A1.14,1.14,0,0,1,.071,5.76a1.184,1.184,0,0,1,.111-.918L2.52.65A1.189,1.189,0,0,1,3.243.075,1.036,1.036,0,0,1,4.115.2L16.264,7.475a.613.613,0,0,1,.38.621A.972.972,0,0,1,16.116,8.774Zm.26,1.3a.508.508,0,0,1,.26.343.592.592,0,0,1-.056.436l-1.131,1.966a.538.538,0,0,1-.334.269.5.5,0,0,1-.427-.065l-2.059-1.187,3.32-2Z" transform="translate(-0.026 -0.031)" opacity="0.5"/>
</svg>
