<svg xmlns="http://www.w3.org/2000/svg" width="18.049" height="19" viewBox="0 0 18.049 19">
  <path id="Union_101" data-name="Union 101" d="M1.9,19a.95.95,0,0,1-.949-.95V13.3a.95.95,0,0,1-.667-1.626l4.466-4.41V1.91A1.908,1.908,0,0,1,6.658,0H16.14a1.907,1.907,0,0,1,1.909,1.908V18.05a.95.95,0,0,1-.95.95Zm.95-7.19V17.1H8.474V11.861L5.687,9.009Zm9.5,2.44h1.9v-1.9h-1.9Zm0-3.8h1.9V8.55h-1.9Zm0-3.8h1.9V4.75h-1.9Zm-3.8,0h1.9V4.75h-1.9Zm-3.8,7.6v-1.9h1.9v1.9Z" transform="translate(0)" opacity="0.5"/>
</svg>
