<svg xmlns="http://www.w3.org/2000/svg" width="18" height="18" viewBox="0 0 18 18">
  <g id="monitor-plus-2_solid" opacity="0.5">
    <path id="Path_756" data-name="Path 756" d="M2.778,13.157c.827.343,1.875.343,3.972.343H8.325v3.15H4.275a.675.675,0,1,0,0,1.35h9.45a.675.675,0,1,0,0-1.35H9.675V13.5H11.25c2.1,0,3.145,0,3.972-.343a4.5,4.5,0,0,0,2.435-2.435C18,9.9,18,8.847,18,6.75s0-3.145-.343-3.972A4.5,4.5,0,0,0,15.222.343C14.4,0,13.347,0,11.25,0H6.75C4.653,0,3.6,0,2.778.343A4.5,4.5,0,0,0,.343,2.778C0,3.6,0,4.653,0,6.75S0,9.9.343,10.722A4.5,4.5,0,0,0,2.778,13.157Z"/>
  </g>
</svg>
