<svg xmlns="http://www.w3.org/2000/svg" width="10.502" height="12" viewBox="0 0 10.502 12">
  <path id="Path_736" data-name="Path 736" d="M10.188,5.553,7.247,7.334a1.53,1.53,0,0,1-.709.193,1.183,1.183,0,0,1-.662-.135l-.855-.515a1.533,1.533,0,0,1-.533.48,1.456,1.456,0,0,1-.709.176v.75a2.169,2.169,0,0,1-.656,1.593,2.169,2.169,0,0,1-1.593.656v.75a.73.73,0,0,1-.217.527.708.708,0,0,1-.527.223.727.727,0,0,1-.533-.223.721.721,0,0,1-.223-.527V9.032a.721.721,0,0,1,.223-.527.727.727,0,0,1,.533-.223.708.708,0,0,1,.527.223.73.73,0,0,1,.217.527v.75a1.445,1.445,0,0,0,1.06-.439,1.445,1.445,0,0,0,.439-1.06V7.322a1.532,1.532,0,0,1-.545-.539,1.424,1.424,0,0,1-.205-.75,1.489,1.489,0,0,1,.176-.691L.406,4.112a.72.72,0,0,1-.351-.463.748.748,0,0,1,.07-.58L1.6.422A.751.751,0,0,1,2.058.059a.655.655,0,0,1,.551.082l7.673,4.592a.387.387,0,0,1,.24.392A.614.614,0,0,1,10.188,5.553Zm.164.82a.321.321,0,0,1,.164.217.374.374,0,0,1-.035.275L9.766,8.107a.34.34,0,0,1-.211.17.316.316,0,0,1-.269-.041l-1.3-.75,2.1-1.265Z" transform="translate(-0.026 -0.031)" opacity="0.25"/>
</svg>
