<svg xmlns="http://www.w3.org/2000/svg" width="10" height="16" viewBox="0 0 10 16">
  <g id="ticket-perferated-fill" transform="translate(19) rotate(90)">
    <g id="Group_358" data-name="Group 358" transform="translate(0 9)">
      <path id="Path_772" data-name="Path 772" d="M0,10.5A1.5,1.5,0,0,1,1.5,9h13A1.5,1.5,0,0,1,16,10.5V12a.5.5,0,0,1-.5.5,1.5,1.5,0,0,0,0,3,.5.5,0,0,1,.5.5v1.5A1.5,1.5,0,0,1,14.5,19H1.5A1.5,1.5,0,0,1,0,17.5V16a.5.5,0,0,1,.5-.5,1.5,1.5,0,0,0,0-3A.5.5,0,0,1,0,12Zm4-1v1H5v-1Zm1,3v-1H4v1Zm7,0v-1H11v1Zm-1-2h1v-1H11Zm-6,3H4v1H5Zm7,1v-1H11v1Zm-7,1H4v1H5Zm7,1v-1H11v1Zm-8,1v1H5v-1Zm7,1h1v-1H11Z" transform="translate(0 -9)"/>
    </g>
  </g>
</svg>
